<svg width="97" height="24" viewBox="0 0 97 24" fill="none" xmlns="http://www.w3.org/2000/svg">
<circle cx="9.5702" cy="12" r="7.25373" stroke="#292D32" stroke-width="2.90149" stroke-linecap="round" stroke-dasharray="5.8 5.8"/>
<path d="M25.7938 19V4.68946H31.5458C32.5706 4.68946 33.4499 4.87128 34.1838 5.23491C34.9177 5.59854 35.4796 6.11424 35.8697 6.782C36.2664 7.44314 36.4648 8.22991 36.4648 9.14229V9.16213C36.4648 10.1076 36.2267 10.9472 35.7507 11.6811C35.2747 12.4084 34.6169 12.9241 33.7772 13.2282L36.9011 19H33.9755L31.169 13.615C31.1491 13.615 31.126 13.615 31.0995 13.615C31.0797 13.615 31.0599 13.615 31.04 13.615H28.3426V19H25.7938ZM28.3426 11.6414H31.288C32.0946 11.6414 32.7227 11.4299 33.1722 11.0067C33.6218 10.577 33.8466 9.97534 33.8466 9.2018V9.18196C33.8466 8.43486 33.6119 7.84314 33.1425 7.40678C32.6797 6.97042 32.0417 6.75224 31.2285 6.75224H28.3426V11.6414ZM43.4366 19.2182C42.3721 19.2182 41.4498 18.9934 40.6697 18.5438C39.8961 18.0942 39.2978 17.4529 38.8746 16.6199C38.4581 15.7868 38.2499 14.7918 38.2499 13.6348V13.615C38.2499 12.4646 38.4614 11.4728 38.8846 10.6398C39.3077 9.80675 39.906 9.16543 40.6796 8.71585C41.4597 8.26627 42.3787 8.04148 43.4366 8.04148C44.4944 8.04148 45.4101 8.26627 46.1836 8.71585C46.9572 9.15882 47.5555 9.79683 47.9786 10.6299C48.4018 11.4629 48.6133 12.4579 48.6133 13.615V13.6348C48.6133 14.7918 48.4018 15.7868 47.9786 16.6199C47.5621 17.4529 46.9671 18.0942 46.1935 18.5438C45.4266 18.9934 44.5076 19.2182 43.4366 19.2182ZM43.4366 17.2149C43.9985 17.2149 44.4746 17.0728 44.8646 16.7885C45.2613 16.5042 45.5655 16.0976 45.777 15.5686C45.9886 15.0331 46.0944 14.3885 46.0944 13.6348V13.615C46.0944 12.8612 45.9886 12.2199 45.777 11.691C45.5655 11.1555 45.2613 10.7456 44.8646 10.4613C44.4679 10.177 43.9919 10.0348 43.4366 10.0348C42.8812 10.0348 42.4052 10.177 42.0085 10.4613C41.6118 10.7456 41.3077 11.1555 41.0961 11.691C40.8845 12.2199 40.7787 12.8612 40.7787 13.615V13.6348C40.7787 14.3885 40.8845 15.0331 41.0961 15.5686C41.3077 16.1042 41.6118 16.5141 42.0085 16.7984C42.4052 17.0761 42.8812 17.2149 43.4366 17.2149ZM53.8397 19.1785C53.1521 19.1785 52.5406 19.0463 52.005 18.7818C51.4695 18.5174 51.0497 18.1438 50.7455 17.6612C50.4414 17.1719 50.2893 16.6033 50.2893 15.9554V15.9356C50.2893 15.2943 50.448 14.7455 50.7654 14.2893C51.0827 13.8265 51.5455 13.4662 52.1538 13.2083C52.762 12.9439 53.4992 12.7852 54.3653 12.7323L58.3818 12.4943V14.1207L54.7223 14.3488C54.0546 14.3885 53.5554 14.5339 53.2248 14.7852C52.9009 15.0364 52.7389 15.3835 52.7389 15.8265V15.8463C52.7389 16.2959 52.9108 16.6496 53.2546 16.9075C53.5984 17.1653 54.0414 17.2942 54.5835 17.2942C55.0794 17.2942 55.519 17.1951 55.9025 16.9967C56.286 16.7984 56.5901 16.5306 56.8149 16.1934C57.0397 15.8562 57.1521 15.4728 57.1521 15.043V11.691C57.1521 11.1555 56.9802 10.7423 56.6364 10.4514C56.2926 10.1538 55.7934 10.0051 55.1389 10.0051C54.5703 10.0051 54.1075 10.1109 53.7505 10.3224C53.3934 10.5274 53.1587 10.815 53.0463 11.1852L53.0265 11.2348H50.7158L50.7257 11.1456C50.7984 10.5307 51.0265 9.99187 51.41 9.52906C51.8001 9.05965 52.3191 8.69602 52.967 8.43817C53.6215 8.17371 54.3819 8.04148 55.248 8.04148C56.1669 8.04148 56.9504 8.18693 57.5983 8.47784C58.2463 8.76213 58.7421 9.17535 59.0859 9.71749C59.4297 10.253 59.6016 10.8943 59.6016 11.6414V19H57.1521V17.4727H57.0132C56.8149 17.8298 56.557 18.1372 56.2397 18.3951C55.9289 18.6463 55.5686 18.8413 55.1587 18.9802C54.7554 19.1124 54.3157 19.1785 53.8397 19.1785ZM62.2892 19V8.25966H64.7486V9.93567H64.8875C65.1189 9.34064 65.4924 8.87783 66.0081 8.54726C66.5304 8.21007 67.1453 8.04148 67.8527 8.04148C68.342 8.04148 68.7816 8.12413 69.1717 8.28941C69.5684 8.44809 69.9056 8.67618 70.1833 8.9737C70.4676 9.27122 70.6824 9.62824 70.8279 10.0448H70.9667C71.1386 9.64146 71.3866 9.29105 71.7105 8.99353C72.0345 8.68941 72.4113 8.4547 72.8411 8.28941C73.2774 8.12413 73.7469 8.04148 74.2493 8.04148C74.9634 8.04148 75.5782 8.18693 76.0939 8.47784C76.6162 8.76213 77.0162 9.17204 77.2939 9.70757C77.5782 10.2365 77.7204 10.8712 77.7204 11.6117V19H75.251V12.2166C75.251 11.7538 75.1782 11.3671 75.0328 11.0563C74.8939 10.7456 74.6791 10.5142 74.3882 10.3621C74.1039 10.2034 73.7436 10.1241 73.3072 10.1241C72.8907 10.1241 72.5237 10.22 72.2064 10.4117C71.8956 10.5968 71.6543 10.8547 71.4824 11.1852C71.3105 11.5158 71.2246 11.8894 71.2246 12.3059V19H68.775V12.048C68.775 11.6513 68.6957 11.3076 68.537 11.0166C68.385 10.7257 68.1635 10.5043 67.8726 10.3522C67.5883 10.2001 67.2445 10.1241 66.8412 10.1241C66.4379 10.1241 66.0775 10.2266 65.7602 10.4315C65.4495 10.6299 65.2015 10.9043 65.0164 11.2547C64.8379 11.6051 64.7486 12.0018 64.7486 12.4447V19H62.2892ZM80.4178 19V8.25966H82.8872V19H80.4178ZM81.6575 6.52415C81.2608 6.52415 80.9203 6.38531 80.636 6.10763C80.3517 5.82994 80.2096 5.49276 80.2096 5.09607C80.2096 4.69938 80.3517 4.3655 80.636 4.09443C80.9203 3.81675 81.2608 3.67791 81.6575 3.67791C82.0542 3.67791 82.3914 3.81675 82.669 4.09443C82.9533 4.3655 83.0955 4.69938 83.0955 5.09607C83.0955 5.49276 82.9533 5.82994 82.669 6.10763C82.3914 6.38531 82.0542 6.52415 81.6575 6.52415ZM90.2855 19.2182C89.221 19.2182 88.302 18.9934 87.5285 18.5438C86.7615 18.0876 86.1698 17.443 85.7533 16.61C85.3434 15.7769 85.1384 14.7918 85.1384 13.6546V13.6447C85.1384 12.5141 85.3434 11.529 85.7533 10.6894C86.1698 9.84972 86.7549 9.19849 87.5086 8.73569C88.2624 8.27288 89.1483 8.04148 90.1665 8.04148C91.1912 8.04148 92.0739 8.26627 92.8144 8.71585C93.5548 9.16543 94.1234 9.79352 94.5201 10.6001C94.9234 11.4067 95.1251 12.3522 95.1251 13.4364V14.2397H86.3781V12.5935H93.9251L92.7449 14.1306V13.1588C92.7449 12.4447 92.6358 11.853 92.4177 11.3836C92.2061 10.9142 91.9086 10.5638 91.5251 10.3324C91.1416 10.0943 90.6987 9.97534 90.1962 9.97534C89.7003 9.97534 89.2541 10.0977 88.8574 10.3423C88.4673 10.5869 88.1599 10.9472 87.9351 11.4233C87.7169 11.8927 87.6078 12.4712 87.6078 13.1588V14.1406C87.6078 14.8017 87.7169 15.367 87.9351 15.8364C88.1533 16.2992 88.4673 16.6562 88.8772 16.9075C89.2871 17.1587 89.7731 17.2843 90.335 17.2843C90.7714 17.2843 91.1483 17.2215 91.4656 17.0959C91.783 16.9637 92.0408 16.805 92.2392 16.6199C92.4441 16.4281 92.5829 16.2397 92.6557 16.0546L92.6854 15.9852H95.016L94.9961 16.0843C94.9102 16.448 94.7515 16.8149 94.5201 17.1852C94.2887 17.5488 93.9813 17.886 93.5978 18.1967C93.2143 18.5008 92.7449 18.7488 92.1896 18.9405C91.6408 19.1256 91.0061 19.2182 90.2855 19.2182Z" fill="#292D32"/>
</svg>
